<svg
    version="1.1"
    viewBox="0 0 2000 2000"
    width="1280"
    height="1280"
    xmlns="http://www.w3.org/2000/svg"
  >
    <path
      transform="translate(726,241)"
      d="m0 0h82l76 3 135 1 57 2 174 10 65 5 81 8 38 3 39 2 28 1 66 1 54 2 30 3 15 4 1 1v32l-2 20-5 28-10 45-11 46v21l1 30v79l5 26 10 41 9 33 12 39 1 2 76 1 79 3 35 2 13 3 10 7 1 5-10 9-17 17-1 2h-2l-2 4-31 31-6 7-8 7-14 14-8 7-15 13-11 9-15 13-3 4 8 1 29 9 9 1h18l3 7 2 16v121l-3 43-8 69-10 76-5 45-6 57-7 64-6 47-2 4-13 3-29 5-26 6-21 5-23 1h-41l-1 16-3 28-4 24-11 58-13 56-8 28-6 16-7 13-5 4-22 1-55 1-46 3-89 8-41 3-34 1h-55l-66-2h-65l-67 1-42 1-126 1-106 3h-96l-26-2-38-6-38-8-56-12-30-6-18-5-12-5-11-7-14-11-6-7-2-5-1-13 3-33 11-78 6-48 1-6-12-5-7-3-8 1-20 4-21 2h-9l-14-3-5-5-4-8-4-16-2-20v-53l2-49 5-74 2-33-49 24-15 7-46 19-10 1-6-3-7-8-10-18-14-29-1-7 7-3 15-4 21-9 14-8 19-12 17-9 24-11 24-10 5-3 1-2-22-2-5-1h-48l-54-6-25-1-2-4-1-22v-40l7 1 9 2 30 2 42 6 34 3h13l-11-8-10-6-27-14-23-12-21-13-10-6 1-4 11-14 11-13 11-14 10-15 11-18 8-10 3-3 4 2 5 5 9 10 12 18 9 10 11 10 11 9 7 6 4 5 10-34 7-24 5-16 4-8 7-8 8-5 2-26 9-3 26-4 24-4 5-2 4-8 5-6h-9l-33-5-9-2-12-1-28-1-31-3-19-4-13-5-8-7-1-6 6-7 1-4 3-123 1-66 1-114 2-54 3-44 4-37 4-20 5-13 8-4 43-13 61-20 43-12 46-11 49-10 54-9 46-6 32-3zm-148 679-14 8-16 11-14 11-10 9-13 12-7 8-11 13-14 20-13 23-11 23-11 30-7 26-5 26-3 26-1 21v15l2 24 3 5 13 15 21 21 5 3-1-8-4-19-4-31v-40l3-26 5-26 5-19 9-26 9-20 13-23 14-20 11-13 6-6v-2l4-2 11-11 13-10 18-12 19-11-6-7-13-14-3-4z"
      fill="#262727"
    />
    <path
      transform="translate(1185,293)"
      d="m0 0h66l44 3 32 4 34 6 40 10 33 11 30 13 19 10 22 14 13 10 13 11 15 15 14 19 9 15 9 20 4 15 1 1 7-11 8-10 5-5 4 1 4 11 7 34 7 38 8 36 5 21 1 8 2 2 7 31 8 33 9 32 11 36 1 2 76 1 79 3 35 2 13 3 10 7 1 5-10 9-17 17-1 2h-2l-2 4-31 31-6 7-8 7-14 14-8 7-15 13-11 9-15 13-10 8-16 15-12 11-13 12-5 8-6 14-2 2 1 9 9 38 8 27 9 34 5 25 4 30v10l-6-2-20-11-14-10-13-11-12-11-16-15-14-12-11-11-9-11-17-17-6-5v-2l-4-1-6 11-13 30-15 41-7 20-11 35-12 42-5 10-4-2-8-14-12-28-11-25-8-16-12-21-14-22-4-3-24-5-9-1h-50l-45 3-30 3-20 1v20l3 3 3 1 34 1 21 2 28 6 25 7 18 8 10 9 5 10 4 16 3 26 1 46-2 2-20 2-64 3-26 2h-20l-16-1-5 5-3 9 2 5 9 4 11 3 28 4 60 7 52 4 41 2 48 1 18 2 5 3 5 8 6 20 2 10v90l-1 3-12 3-22 2-107 3-59 1-70 6-15 1h-55l-34-3-46-7-26-5-36-10-15-4-8-7-5-6-6-13-5-21-4-33-2-26-3-68-2-39-1-35v-16l1-33 3-30 6-42 9-53 7-31 9-34 4-11 8-7 10-2h12l67 3 139 1 1-6 6-13 4-10 9-17 9-15 5-7 3-5 8 6 15 9 23 12 20 8 26 8 16 3 8 1h30l20-4 12-4 14-6 11-7 11-8 9-8 9-11 7-11 5-10 4-13 2-11v-21l-4-21-5-15-9-19-12-18-13-15-9-9-10-8 1-4 11-11 9-11 13-17 11-17 12-23 7-19 5-21 2-13v-27l-1-9-1-1-16 29-15 28-6 11-1-2 4-16 3-22-1-18-4-17-6-15-9-16-10-13-10-11-8-7-14-11-15-10-16-9-16-8-24-10-30-10-28-7-31-6-39-5-29-2-30-1h-27l-24 1-26 3-26 5-21 6-19 8-13 9-10 10-8 16-3 9-1 6v18l4 15 8 14 7 9 9 9 15 10 15 8 21 8 24 6 26 4 23 2 38-1 2-13 5-16 5-10 9-12 7-7 13-8 14-5 8-2 9 1 6 4 5 8v7l-4 8-5 4-18 6-10 7-6 10-4 11-2 12 9 2 13 5 11 7 8 9 3 10-1 11-5 10-8 8-8 5-11 3h-11l-9-3-9-7-6-7-6-13-2-6v-4l-36 1-25 4-27 7-28 10-21 9-16 8-20 12-14 11-14 14-8 11-8 14-7 18-4 20-1 11 1 21 5 22 8 19 8 14 8 11 9 10 9 8 15 10 19 9 20 6 17 3h33l20-4 18-6 17-8 16-11 12-11 9-10 6-10-2-5-9-20-5-19-2-14v-22l2-14 5 5 5 10 12 22 12 23 11 21 11 24 10 19 8 19 1 3v7l-4-1-13-11-10-9-8-8-4 2-7 8-8 9-8 7-15 11-18 10-19 8-20 6-25 4h-29l-25-4-21-6-20-8-19-11-13-10-12-11-9-11-9-12-9-16-8-18-6-20-3-15-1-7v-30l3-19 6-20 9-20 6-10 8-11 9-11 10-10 11-9 14-10 17-10 16-8 20-9 11-4-11-5-19-8-17-9-12-9-13-11-11-13-8-13-6-12-5-16-2-14v-14l3-17 5-15 8-15 10-13 12-11 14-9 19-9 21-7 21-5 24-4z"
      fill="#FCFCFC"
    />
    <path
      transform="translate(1204,326)"
      d="m0 0h27l30 1 38 3 36 5 34 7 32 9 25 9 27 12 18 10 15 10 13 10 10 9 7 6 7 8 9 12 10 18 6 16 3 14 1 18-3 22-4 17 18-35 10-18 9-15 2 2 1 9v27l-4 23-5 17-8 19-10 19-13 19-11 14-12 14-8 8 1 4 11 9 11 11 9 11 10 15 9 17 6 17 3 12 2 12v21l-3 16-6 15-9 14-12 14-13 11-20 12-16 6-14 4-12 2h-30l-19-3-19-5-20-7-20-9-22-12-12-8-3-5-4-13-12-26-8-16-9-19-10-19-8-16-15-28-5-8-3-6-1-1-2 13v22l3 18 5 18 8 17 2 5-7 11-11 12-11 10-17 11-20 9-21 6-12 2h-33l-17-3-20-6-21-10-14-10-12-11-8-9-10-15-9-19-5-16-3-14-1-21 2-17 4-17 9-21 7-11 9-11 14-14 15-11 19-11 16-8 19-8 28-10 27-7 25-4 34-1 2 1 5 15 6 11 9 8 8 4 4 1h11l13-4 9-7 6-7 3-7 1-11-3-10-7-8-11-7-16-6-6-2v-7l3-11 6-12 5-6 8-5 18-6 5-4 3-7v-7l-5-8-8-4-10 1-16 5-12 7-10 9-9 13-5 10-5 18-1 9-1 1-38 1-31-3-22-4-23-6-20-8-18-10-12-9-11-11-11-18-4-12-1-5v-18l3-13 8-16 7-8 10-9 11-6 11-5 18-6 27-6 22-3 11-1z"
      fill="#262727"
    />
    <path
      transform="translate(590,325)"
      d="m0 0h63l60 3 63 2 40 2 40 4 35 5 50 9 21 6 12 6 6 7 4 11 4 19 1 12v35l-3 23-3 12-5 8-8 5-16 7-12 3-29 2-6 1h-19l-17-4-11-1-9 1-2 1v17l1 20v58l-1 31v29l2 50v126l-3 9-6 7-24 8-25 5-32 4-35 3h-28l-20-3-40-9-10-4-5-5-3-5-5-27-8-43-9-45-7-45-5-45v-78l1-17 6-28 3-17-38 4-18 2h-19l-14-5-19-11-12-5-7-8-8-16-5-14-1-5-1-18 1-25 4-33 4-18 3-6 5-2 26-5 20-4 25-3z"
      fill="#FCFCFC"
    />
    <path
      transform="translate(1185,293)"
      d="m0 0h66l44 3 32 4 34 6 40 10 33 11 30 13 19 10 22 14 13 10 13 11 15 15 14 19 9 15 9 20 4 15 1 1 7-11 8-10 5-5 4 1 4 11 7 34 7 38 8 36 5 21 1 8 2 2 7 31 8 33 9 32 11 36 1 2 76 1 79 3 35 2 13 3 10 7 1 5-10 9-17 17-1 2h-2l-2 4-31 31-6 7-8 7-14 14-8 7-15 13-11 9-15 13-10 8-16 15-12 11-13 12-5 8-6 14-2 2 1 9 9 38 8 27 9 34 5 25 4 30v10l-6-2-20-11-14-10-13-11-12-11-16-15-14-12-11-11-9-11-17-17-6-5v-2l-4-1-6 11-13 30-15 41-7 20-11 35-12 42-5 10-4-2-8-14-12-28-11-25-8-16-12-21-14-22 1-2 9 2 17 3h19l13-3 19-10 7-5 2-5-2-72-2-64-2-7-31-5-19-2-18-1-90-1-64-1-13-1-1-4 7-16 4-10 9-17 9-15 5-7 3-5 8 6 15 9 23 12 20 8 26 8 16 3 8 1h30l20-4 12-4 14-6 11-7 11-8 9-8 9-11 7-11 5-10 4-13 2-11v-21l-4-21-5-15-9-19-12-18-13-15-9-9-10-8 1-4 11-11 9-11 13-17 11-17 12-23 7-19 5-21 2-13v-27l-1-9-1-1-16 29-15 28-6 11-1-2 4-16 3-22-1-18-4-17-6-15-9-16-10-13-10-11-8-7-14-11-15-10-16-9-16-8-24-10-30-10-28-7-31-6-39-5-29-2-30-1h-27l-24 1-26 3-26 5-21 6-19 8-13 9-10 10-8 16-3 9-1 6v18l4 15 8 14 7 9 9 9 15 10 15 8 21 8 24 6 26 4 23 2 38-1 2-13 5-16 5-10 9-12 7-7 13-8 14-5 8-2 9 1 6 4 5 8v7l-4 8-5 4-18 6-10 7-6 10-4 11-2 12 9 2 13 5 11 7 8 9 3 10-1 11-5 10-8 8-8 5-11 3h-11l-9-3-9-7-6-7-6-13-2-6v-4l-36 1-25 4-27 7-28 10-21 9-16 8-20 12-14 11-14 14-8 11-8 14-7 18-4 20-1 11 1 21 5 22 8 19 8 14 8 11 9 10 9 8 15 10 19 9 20 6 17 3h33l20-4 18-6 17-8 16-11 12-11 9-10 6-10-2-5-9-20-5-19-2-14v-22l2-14 5 5 5 10 12 22 12 23 11 21 11 24 10 19 8 19 1 3v7l-4-1-13-11-10-9-8-8-4 2-7 8-8 9-8 7-15 11-18 10-19 8-20 6-25 4h-29l-25-4-21-6-20-8-19-11-13-10-12-11-9-11-9-12-9-16-8-18-6-20-3-15-1-7v-30l3-19 6-20 9-20 6-10 8-11 9-11 10-10 11-9 14-10 17-10 16-8 20-9 11-4-11-5-19-8-17-9-12-9-13-11-11-13-8-13-6-12-5-16-2-14v-14l3-17 5-15 8-15 10-13 12-11 14-9 19-9 21-7 21-5 24-4z"
      fill="#FDF063"
    />
    <path
      transform="translate(710,918)"
      d="m0 0h44l30 3 26 5 21 6 16 6 16 8 11 6 14 10 12 11 9 9 10 13 10 19 5 15 2 9v16l-4 16-6 12-7 9-8 9-15 11-14 8-6 3h-4l-9-14-9-11-12-12-15-11-16-9-16-6-18-4-18-1-15 2-17 5-11 6-12 11-7 10-4 13v16l4 13 5 9 6 7 14 9 19 7 24 5 20 2h28l21-2 12-2h6l-2 16-3 8-13-2-21-4-16-2-16-1h-17l-21 2-17 4-15 6-11 7-10 9-7 9-4 13v8l3 10 5 9 7 7 11 7 13 5 12 2h24l20-2 23-5 19-7 15-8 13-10 10-9 7-8 9 3 25 12 17 12 10 9 8 8 8 13 6 15 3 14v18l-4 16-6 11-8 10-9 9-15 11-19 11-17 8-25 9-21 6-26 5-22 3-14 1h-45l-23-2-30-5-32-8-28-10-24-11-21-12-14-10-14-11-20-20-13-18-10-18-8-18-8-24-5-23-4-31v-40l3-26 5-26 5-19 9-26 9-20 13-23 14-20 11-13 7-8 8-7 7-7 13-10 18-12 18-10v-2l7-1 20-8 19-6 22-5 27-4z"
      fill="#252626"
    />
    <path
      transform="translate(445,858)"
      d="m0 0 3 1 1 6 1 25 2 27v25l-2 17-6 26-11 41-1 6 5-2 8-11 13-22 9-11 9-10 7-7 7-8 12-13 11-14 9-10 7-8 12-13 5-5 4-1 26 20 2 4-14 8-16 11-14 11-10 9-12 11-7 8-11 13-14 20-13 23-11 23-11 30-7 26-5 26-3 26-1 21v22l-1 9-3 1-1-4h-2l-7-11-2-2v38l1 25 2 24 1 35 3 27v10l-5 3-7 1-32 1-33 3-6 1h-8l-1-1v-15l2-19 5-24 7-37 5-29 6-27 5-18-11 4-15 7-31 16-23 11-16 8-41 17-10 4-10 1-6-3-7-8-10-18-14-29-1-7 7-3 15-4 21-9 14-8 19-12 17-9 24-11 24-10 5-3 1-2-22-2-5-1h-48l-54-6-25-1-2-4-1-22v-40l7 1 9 2 30 2 42 6 34 3h13l-11-8-10-6-27-14-23-12-21-13-10-6 1-4 11-14 11-13 11-14 10-15 11-18 8-10 3-3 4 2 5 5 9 10 12 18 9 10 11 10 11 9 7 6 4 5 10-34 7-24 5-16 4-8 7-8 8-5 2-26 9-3 58-9z"
      fill="#09CD84"
    />
    <path
      transform="translate(719,884)"
      d="m0 0h28l27 2 28 4 26 6 27 9 20 9 16 9 17 12 15 13 9 9 13 17 9 15 8 17 6 20 2 15v11l-2 14-5 17-8 16-8 11-9 10-7 7-16 12-18 10-12 6v22l-3 16-1 7 18 8 16 9 13 9 10 8 12 11 11 14 9 16 6 16 4 18 1 10v9l-2 17-4 14-8 17-9 12-11 12-11 9-14 10-15 9-25 12-19 7-26 8-22 5-26 4-34 3h-35l-32-3-36-6-27-7-27-9-26-11-25-13-18-12-12-9-13-11-14-14-9-11-9-12-11-18-8-16-8-20-6-19-6-27-1-14 3-1 6 7 8 7 18 18 6 4 9 25 10 21 11 17 10 13 19 19 20 15 13 8 16 9 22 10 28 10 32 8 30 5 23 2h45l22-2 26-4 25-6 30-10 20-9 18-10 14-10 12-11 9-11 6-12 3-14v-18l-4-17-7-16-8-11-12-12-17-12-23-12-14-6-2 4-12 12-16 12-15 8-19 7-23 5-20 2h-24l-15-3-11-5-11-7-8-8-6-13-1-5v-8l4-13 7-9 8-8 11-7 12-6 17-5 12-2 15-1h17l24 2 24 4 15 3h3l3-11 2-12-26 4-13 1h-28l-20-2-24-5-19-7-11-7-8-7-6-10-4-10-1-5v-16l4-13 7-10 9-9 11-7 16-6 10-2 15-1 19 2 18 5 18 8 15 10 11 9 13 13 11 15 3 5v2l10-4 14-8 12-9 8-7 9-12 6-12 4-16v-16l-5-19-9-19-10-14-11-12-8-8-15-11-17-10-20-9-22-7-27-6-24-3-13-1h-44l-29 3-29 6-20 6-16 6-11 4-5-2-9-9-7-8-1-1v-7l27-12 24-8 25-6 24-4 18-2z"
      fill="#FCFCFC"
    />
    <path
      transform="translate(1185,293)"
      d="m0 0h66l44 3 32 4 34 6 40 10 33 11 30 13 19 10 22 14 13 10 13 11 15 15 14 19 9 15 9 20 5 18-2 5-10 18-12 22-13 25-2 1 6-30 1-18-2-16-5-17-8-16-7-12-9-11-9-10-8-7-14-11-15-10-16-9-16-8-24-10-30-10-28-7-31-6-39-5-29-2-30-1h-27l-24 1-26 3-26 5-21 6-19 8-13 9-10 10-8 16-3 9-1 6v18l4 15 8 14 7 9 9 9 15 10 15 8 21 8 24 6 26 4 23 2 38-1 2-13 5-16 5-10 9-12 7-7 13-8 14-5 8-2 9 1 6 4 5 8v7l-4 8-5 4-18 6-10 7-6 10-4 11-2 12 9 2 13 5 11 7 8 9 3 10-1 11-5 10-8 8-8 5-11 3h-11l-9-3-9-7-6-7-6-13-2-6v-4l-36 1-25 4-27 7-28 10-21 9-16 8-20 12-14 11-14 14-8 11-8 14-7 18-4 20-1 11 1 21 5 22 8 19 8 14 8 11 9 10 9 8 15 10 19 9 20 6 17 3h33l20-4 18-6 17-8 16-11 12-11 9-10 6-10-2-5-9-20-5-19-2-14v-22l2-14 5 5 5 10 12 22 12 23 11 21 11 24 10 19 8 19 1 3v7l-4-1-13-11-10-9-8-8-4 2-7 8-8 9-8 7-15 11-18 10-19 8-20 6-25 4h-29l-25-4-21-6-20-8-19-11-13-10-12-11-9-11-9-12-9-16-8-18-6-20-3-15-1-7v-30l3-19 6-20 9-20 6-10 8-11 9-11 10-10 11-9 14-10 17-10 16-8 20-9 11-4-11-5-19-8-17-9-12-9-13-11-11-13-8-13-6-12-5-16-2-14v-14l3-17 5-15 8-15 10-13 12-11 14-9 19-9 21-7 21-5 24-4z"
      fill="#FCFCFC"
    />
    <path
      transform="translate(1202,577)"
      d="m0 0 17 1 28 6 46 11 44 10 36 6 58 9 11 2 1 2-13 6-8 7-4 8-1 3v12l5 10 8 7 11 4h16l14-4 13-7 4 1 13 10 13 13 9 12 8 14 5 11 4 13 2 10v19l-4 14-8 13-10 11-12 9-14 7-15 5-15 3h-19l-25-5-21-7-21-9-18-10-20-14-14-12-9-8-7-8-4-5 1-6 5-19 2-15v-13l-2-15-5-17-8-16-6-8-10-6-11-1-9 4-5 5-4 7-3 7-3-3-9-15-10-16-12-19-12-17-7-11-1-4z"
      fill="#FDF063"
    />
    <path
      transform="translate(598,947)"
      d="m0 0h7l7 6 5 6 8 7 2 4-22 13-20 14-34 24-12 9-12 11h-2l-1 3-25 25-5 4h-2v3l101 1 42 2 3 1v48l2 25-3 3-33 1-22 3-54 1-26 2-15 1 1 3 9 5 26 20 15 10 16 13 12 11 12 12 9 13 4 8v6l-11 7-27 16-11 8-5 4-6 7-7 1-13-7-24-18v-2l-5-2-9-7-5-18-5-32-1-10v-40l3-26 5-26 5-19 9-26 9-20 13-23 14-20 11-13 7-8 8-7 7-7 13-10 18-12z"
      fill="#09CD84"
    />
    <path
      transform="translate(1582,474)"
      d="m0 0 2 2 1 9v27l-4 23-5 17-8 19-10 19-13 19-11 14-12 14-8 8 1 4 11 9 11 11 9 11 10 15 9 17 6 17 3 12 2 12v21l-3 16-6 15-9 14-12 14-13 11-20 12-16 6-14 4-12 2h-30l-19-3-19-5-20-7-20-9-22-12-12-8-3-5-4-13-12-26-8-16-9-19-10-19-8-16-15-28-5-8-3-6v-9l4-8 5-6 8-4 9-1 9 3 8 6 7 10 7 16 5 19 1 10v13l-3 20-5 16 1 6 22 22 14 11 18 12 16 9 24 10 18 6 25 5h19l15-3 15-5 14-7 9-7 8-7 8-11 5-10 3-11v-19l-4-17-5-13-8-15-8-11-11-12-11-10-7-5-5 1-14 7-11 3h-16l-11-4-9-8-5-10v-12l4-9 7-8 7-4 7-2 14 1 18 6 7 3 8 3 7-8 10-15 12-20 12-22h2l2-6 8-16 3-5 4-10 15-29 10-18z"
      fill="#050304"
    />
    <path
      transform="translate(978,1504)"
      d="m0 0h50l24 2 15 5 10 6 10 8 8 11 6 13 5 22 2 14v27l-3 14-5 12-4 5-9 6-9 3-38 5-25 2h-41l-14-2-1-2v-13l9-65 6-49 2-12 1-11z"
      fill="#EC4FC4"
    />
    <path
      transform="translate(1285,1496)"
      d="m0 0h17l18 2 5 1 20 2 9 4 9 6 5 6 5 12 5 23v37l-2 20-6 21-6 12-8 9-10 5-21 5-6 1h-9l-15-3-14-5-10-7-8-9-7-14-4-13-3-16v-37l2-17 5-16 6-11 8-10 9-6z"
      fill="#EC4FC4"
    />
    <path
      transform="translate(888,1487)"
      d="m0 0h19l6 3 6 12 4 17 2 18 1 15v35l-3 19-6 21-7 16-7 9-8 6-17 7-16 4h-18l-14-4-12-7-12-12-9-14-5-11-5-16-2-13v-17l4-44 3-26 2-4h35l7 1v12l-4 48v33l3 10 3 5v2h2v2l6 2 7 2h19v-124l5-4 5-2z"
      fill="#EC4FC4"
    />
    <path
      transform="translate(541,1480)"
      d="m0 0h8l12 3 10 6 8 7 7 14 1 4v14l-4 17-3 6-1 1h-8l-6-4-9-9-7-2-8 1-1 4 4 5 18 10 6 5 8 14 5 18 3 16v28l-3 10-6 4-23 6-16 2h-34l-11-3-8-6-4-7-3-9v-12l3-5 10-3 9-2 25-1-1-13-3-10-8-11-12-10-9-6-7-8-5-11-1-4v-11l4-12 6-9 9-8 14-8 22-9z"
      fill="#EC4FC4"
    />
    <path
      transform="translate(1477,1487)"
      d="m0 0h9l12 3 13 7 12 12 13 21 4 8v12l-6 15-3 2-13-4-16-8-17-9 4 8 9 10 11 8 14 9 9 7 3 6v16l-5 25-6 17-4 6-7 3-42 2h-29l-8-4-7-9-5-11v-14l4-8 9-4 8-1 9 2 13 8 3 1 3-19v-9l-2-9-4-6-8-5-14-6-5-6-1-2v-15l4-17 8-16 9-12 9-9 7-4z"
      fill="#EC4FC4"
    />
    <path
      transform="translate(625,1496)"
      d="m0 0h30l2 2 5 1 13-1 6-1h65l3 3 3 9 3 21v15l-2 3-4 1-21 2-19 4v14l2 25 2 39 2 16v8l-13 3-22 4h-7l-5-2-5-6-2-7v-14l2-23 1-20v-28l-2-4-7-3-29-4-8-4v-17l4-27z"
      fill="#EC4FC4"
    />
    <path
      transform="translate(1193,1494)"
      d="m0 0 4 1 2 5 2 15 3 40v99l-2 5-8 2h-34l-10-2-3-5-3-14-2-21-2-27v-40l4-52 1-1 31-3z"
      fill="#EC4FC4"
    />
    <path
      transform="translate(366,896)"
      d="m0 0h2v28l-3 38-3 26-3 45-2 7-3 1-5-5-12-20-7-11-4-6-9-5-5-4v-2h-2v-2l-5-2-17-16-9-10-11-16-6-8-4-4v-2h-6l-10 12-13 21-10 14-11 13-7 9-7 8v4l2 1v2l5 2 10 7 17 9 23 11 11 6 12 8 16 12 2 2-1 4-10 2h-20l-30-4-36-5-21-2h-16l-1 4v27l1 19 1 2 17 1 27 2 13 2 13 1 3 1 52 1 18 2 7 3 3 4-2 5-5 4-23 10-16 8-17 8-14 8-11 6-17 10-11 5-15 5-10 3-2 4 5 13 8 16 7 13 8 9 2 1h13l14-5 13-6 27-12 8-4 15-7 16-8 14-5h5l-5 4-47 23-15 7-46 19-10 1-6-3-7-8-10-18-14-29-1-7 7-3 15-4 21-9 14-8 19-12 17-9 24-11 24-10 5-3 1-2-22-2-5-1h-48l-54-6-25-1-2-4-1-22v-40l7 1 9 2 30 2 42 6 34 3h13l-11-8-10-6-27-14-23-12-21-13-10-6 1-4 11-14 11-13 11-14 10-15 11-18 8-10 3-3 4 2 5 5 9 10 12 18 9 10 11 10 11 9 7 6 4 5 10-34 7-24 5-16 4-8 7-8 8-5z"
      fill="#07AC9E"
    />
    <path
      transform="translate(598,947)"
      d="m0 0h7l7 6 5 6 8 7 2 4-22 13-20 14-34 24-12 9-12 11h-2l-1 3-25 25-5 4h-2l-1 3-3 2-7 18-6 19-4 17-3 19-1 5-1 15v44l4 31 3 15 2 9 2 4-4-2-5-18-5-32-1-10v-40l3-26 5-26 5-19 9-26 9-20 13-23 14-20 11-13 7-8 8-7 7-7 13-10 18-12z"
      fill="#09CD84"
    />
    <path
      transform="translate(755,1087)"
      d="m0 0h15l15 3 13 5 15 9 14 12 10 12 2 5-10 2-8 1h-41l-20-3-16-4-10-5-5-4-3-5v-11l4-6 8-6 12-4z"
      fill="#252626"
    />
    <path
      transform="translate(366,896)"
      d="m0 0h2v28l-3 38-3 26-3 45-2 7-3 1-5-5-12-20-7-11-5-7 1-10 12-40 7-25 5-10 7-8 8-5z"
      fill="#262727"
    />
    <path
      transform="translate(1018,1547)"
      d="m0 0 12 3 9 5 7 7 5 8 2 7v9l-2 9-5 9-8 7-8 4-20 5-4 2h-4l1-14 9-55 4-5z"
      fill="#252626"
    />
    <path
      transform="translate(757,1213)"
      d="m0 0h33l23 3 11 2-2 4-10 7-16 8-17 5-21 3h-29l-8-3-9-7 1-4 10-8 13-6 13-3z"
      fill="#262727"
    />
    <path
      transform="translate(573,918)"
      d="m0 0m-1 1m-1 1m-1 1m-3 1 3 1-4 5-11 7-16 12-11 9-7 7-8 7-9 10-13 16-12 18-12 21-11 23-11 30-7 26-5 26-3 26-1 21v22l-1 9-3 1-1-4h-2l-7-11-2-2-1-2 6 1 4 1 1-1 1-8 1-36 1-4 1-13 2-6 4-23 5-21 6-17 7-18 8-16 7-13 9-15 10-15 5-7h2l2-4 14-16 6-7 8-7 16-13 6-5 5-3 11-8 6-3z"
      fill="#06AFA0"
    />
    <path
      transform="translate(310,1133)"
      d="m0 0h2l-2 5-5 4-23 10-16 8-17 8-14 8-11 6-17 10-11 5-15 5-10 3-2 4 5 13 8 16 7 13 8 9 2 1h13l14-5 13-6 27-12 8-4 15-7 16-8 14-5h5l-5 4-47 23-15 7-46 19-10 1-6-3-7-8-10-18-14-29-1-7 7-3 15-4 21-9 14-8 19-12 17-9 24-11 24-10z"
      fill="#07AC9D"
    />
    <path
      transform="translate(252,920)"
      d="m0 0 4 2 5 5 9 10 12 18 9 10 11 10 11 9 7 6 5 6v2l-5-2-8-6v-2h-2v-2l-5-2-17-16-9-10-11-16-6-8-4-4v-2h-6l-10 12-13 21-10 14-11 13-7 9-7 8v4l2 1v2l5 2 10 7 17 9 23 11 11 6 12 8 16 12 2 2-1 4-7-1 4-2-11-8-10-6-27-14-23-12-21-13-10-6 1-4 11-14 11-13 11-14 10-15 11-18 8-10z"
      fill="#0BA093"
    />
    <path
      transform="translate(598,947)"
      d="m0 0h7l7 6-1 2-4-4h-6l-13 7-9 6-14 10-14 12-8 7-9 9-7 8-11 15-7 11-9 15-9 20-10 25-6 19-4 17-3 19-1 5-1 15v44l4 31 3 15 2 9 2 4-4-2-5-18-5-32-1-10v-40l3-26 5-26 5-19 9-26 9-20 13-23 14-20 11-13 7-8 8-7 7-7 13-10 18-12z"
      fill="#09A799"
    />
    <path
      transform="translate(1644,617)"
      d="m0 0 2 1 9 37 9 33 12 39 1 2 76 1 79 3 35 2 13 3 10 7 1 5-5 4-4-1h2l1-6-2-3-4-2-18-3-38-2-67-2-74-3-7-1-4-6-8-25-8-27-3-12-1-11-1-7-2-1-3-18z"
      fill="#EAF7F6"
    />
    <path
      transform="translate(1528,573)"
      d="m0 0 1 2-7 12-6 12-8 13-15 22-6 5-7-3-19-7-12-4v-1h15l13 3 5 1 6-5 7-8 7-7 9-11 11-15z"
      fill="#FCFBFC"
    />
    <path
      transform="translate(1644,617)"
      d="m0 0 2 1 9 37 9 33 12 39 1 2 9 1-1 2-10-1-4-6-8-25-8-27-3-12-1-11-1-7-2-1-3-18z"
      fill="#9EE0DA"
    />
    <path
      transform="translate(1786,732)"
      d="m0 0h19l47 2 21 2 8 3 9 6 1 5-5 4-4-1h2l1-6-2-3-4-2-18-3-38-2v-2l-31-1-6-1z"
      fill="#8ADAD3"
    />
    <path
      transform="translate(426,863)"
      d="m0 0h5l-1 3-28 6-29 4-2 1-2 25h-1v-6h-2l1-22 9-3 26-4z"
      fill="#19948A"
    />
    <path
      transform="translate(1867,736)"
      d="m0 0 10 1 11 6 3 3-1 5-4 3-4-1h2l1-6-2-3-4-2-11-2z"
      fill="#8CD8D1"
    />
    <path
      transform="translate(1644,617)"
      d="m0 0 2 1 9 37 5 19-1 4-3-7-4-16-2-7v-5l-2-1-3-18z"
      fill="#09B3A4"
    />
    <path
      transform="translate(1638,593)"
      d="m0 0 3 2 4 19 1 10 3 18h-2l-8-38z"
      fill="#DAF2F0"
    />
    <path
      transform="translate(1793,843)"
      d="m0 0 2 2-12 11-6 5-4-2 11-10 6-5z"
      fill="#B7E7E3"
    />
    <path
      transform="translate(1832,805)"
      d="m0 0 2 2-12 13-8 7-5 4v-3z"
      fill="#32A79D"
    />
    <path
      transform="translate(1828,807)"
      d="m0 0 2 1-21 21-1 4-3 3-6 1 6-7z"
      fill="#E0EAEA"
    />
    <path
      transform="translate(1652,658)"
      d="m0 0 2 1 3 12 3 7 3 11v5l-2-2-6-19-3-12z"
      fill="#FDFDFD"
    />
    <path
      transform="translate(1878,758)"
      d="m0 0h2l-2 4-14 14-1 2h-2l-2 4-3-1 2-1v-2h2v-2h2v-2h2v-2h2v-2h2v-2h2v-2h2v-2h2v-2h2v-2h2z"
      fill="#3B5D5A"
    />
    <path
      transform="translate(1626,1054)"
      d="m0 0 4 1 9 8 6 8-4-2-5-3v-2l-4-2v-2l-4-2z"
      fill="#0A090A"
    />
    <path
      transform="translate(1770,861)"
      d="m0 0 3 1-2 4-10 8-2-3z"
      fill="#A0C1BE"
    />
    <path
      transform="translate(1883,742)"
      d="m0 0 5 1 3 3-1 5-4 3-4-1h2l1-6z"
      fill="#98D1CC"
    />
    <path
      transform="translate(1759,872)"
      d="m0 0 1 3-11 10-4 2 2-5 8-7 2-2z"
      fill="#E9EDEF"
    />
    <path
      transform="translate(1652,652)"
      d="m0 0h2l6 22-1 4-3-7-4-16z"
      fill="#06B2A3"
    />
    <path
      transform="translate(1733,897)"
      d="m0 0 2 1-14 14-6 4 2-4 15-14z"
      fill="#131313"
    />
    <path
      transform="translate(426,863)"
      d="m0 0h5l-1 3-8 2h-5l1-3z"
      fill="#19968B"
    />
    <path
      transform="translate(1672,717)"
      d="m0 0 2 3 3 9 9 1-1 2-10-1-3-5z"
      fill="#95DDD7"
    />
    <path
      transform="translate(303,977)"
      d="m0 0 4 2 13 11-1 2-16-14z"
      fill="#283C3A"
    />
    <path
      transform="translate(520,1044)"
      d="m0 0 2 1-11 12-3 2 2-4 2-3h2l2-4z"
      fill="#06B2A3"
    />
    <path
      transform="translate(575,917)"
      d="m0 0 3 3-4 3-5 3-2-1z"
      fill="#13776F"
    />
    <path
      transform="translate(1793,843)"
      d="m0 0 2 2-7 6-2-1 2-4z"
      fill="#77A4A0"
    />
  </svg>